# xmcd CD database file
#
# Track frame offsets:
#	150
#	10545
#	18221
#	28350
#	38297
#	51393
#	63613
#	72209
#	81872
#	89660
#
# Disc length: 1314 seconds
#
# Revision: 0
# Processed by: cddbd v1.5.2PL0 Copyright (c) Steve Scherf et al.
# Submitted via: CDex 1.70beta2
#
DISCID=7a05200a
DTITLE=Country Music - Westerns de légende
DYEAR=2004
DGENRE=Country
TTITLE0=Patsy Cline - I Love You Honey
TTITLE1=George Jones - Jambalaya
TTITLE2=Dolly Parton - Release Me
TTITLE3=Donna Fargo - Sticks and Stones
TTITLE4=Kenny Rogers - Ruby Don't Take Your Love To Town
TTITLE5=Lynn Anderson - Stand By Your Man
TTITLE6=Conway Twitty - Blue Is The Way I Feel
TTITLE7=Willie Nelson - Let's Pretend
TTITLE8=Roger Miller - Dang Me
TTITLE9=Frankie Laine - Rawhide
EXTD=YEAR: 2004
EXTT0=
EXTT1=
EXTT2=
EXTT3=
EXTT4=
EXTT5=
EXTT6=
EXTT7=
EXTT8=
EXTT9=
PLAYORDER=
